<?xml version="1.0" encoding="UTF-8" standalone="no"?>
<!-- Created with Inkscape (http://www.inkscape.org/) -->

<svg
   width="105.37654mm"
   height="105.37657mm"
   viewBox="0 0 105.37654 105.37657"
   version="1.1"
   id="svg1"
   xml:space="preserve"
   xmlns:inkscape="http://www.inkscape.org/namespaces/inkscape"
   xmlns:sodipodi="http://sodipodi.sourceforge.net/DTD/sodipodi-0.dtd"
   xmlns="http://www.w3.org/2000/svg"
   xmlns:svg="http://www.w3.org/2000/svg"><sodipodi:namedview
     id="namedview1"
     pagecolor="#505050"
     bordercolor="#eeeeee"
     borderopacity="1"
     inkscape:showpageshadow="0"
     inkscape:pageopacity="0"
     inkscape:pagecheckerboard="0"
     inkscape:deskcolor="#505050"
     inkscape:document-units="mm"><inkscape:page
       x="-4.565222e-14"
       y="0"
       width="105.37655"
       height="105.37657"
       id="page2"
       margin="0"
       bleed="0" /></sodipodi:namedview><defs
     id="defs1" /><g
     inkscape:label="Camada 1"
     inkscape:groupmode="layer"
     id="layer1"
     transform="translate(-40.784724,-73.648605)"><g
       style="fill:#ffffff"
       id="g5"
       transform="matrix(7.5268971,0,0,7.5268971,25.730932,58.594812)"
       inkscape:export-filename="adm-icon.svg"
       inkscape:export-xdpi="96"
       inkscape:export-ydpi="96"><path
         d="m 11,5 a 3,3 0 1 1 -6,0 3,3 0 0 1 6,0 m -9,8 c 0,1 1,1 1,1 H 8.256 A 4.5,4.5 0 0 1 8,12.5 4.5,4.5 0 0 1 9.544,9.107 Q 8.844,9.002 8,9 C 3,9 2,12 2,13 m 9.886,-3.54 c 0.18,-0.613 1.048,-0.613 1.229,0 l 0.043,0.148 a 0.64,0.64 0 0 0 0.921,0.382 l 0.136,-0.074 c 0.561,-0.306 1.175,0.308 0.87,0.869 l -0.075,0.136 a 0.64,0.64 0 0 0 0.382,0.92 l 0.149,0.045 c 0.612,0.18 0.612,1.048 0,1.229 l -0.15,0.043 a 0.64,0.64 0 0 0 -0.38,0.921 l 0.074,0.136 c 0.305,0.561 -0.309,1.175 -0.87,0.87 L 14.079,15.01 a 0.64,0.64 0 0 0 -0.92,0.382 l -0.045,0.149 c -0.18,0.612 -1.048,0.612 -1.229,0 l -0.043,-0.15 a 0.64,0.64 0 0 0 -0.921,-0.38 l -0.136,0.074 C 10.224,15.39 9.61,14.776 9.915,14.215 L 9.99,14.079 A 0.64,0.64 0 0 0 9.608,13.159 L 9.46,13.114 c -0.613,-0.18 -0.613,-1.048 0,-1.229 L 9.608,11.842 A 0.64,0.64 0 0 0 9.99,10.921 L 9.916,10.785 C 9.61,10.224 10.224,9.61 10.785,9.915 l 0.136,0.075 a 0.64,0.64 0 0 0 0.92,-0.382 z M 14,12.5 a 1.5,1.5 0 1 0 -3,0 1.5,1.5 0 0 0 3,0"
         id="path1"
         style="fill:#ffffff" /></g></g></svg>
