<svg width="157" height="157" viewBox="0 0 157 157" fill="none" xmlns="http://www.w3.org/2000/svg">
<path d="M152.115 19.0365C153.032 19.9562 153.547 21.2018 153.547 22.5003C153.547 23.7989 153.032 25.0445 152.115 25.9641L141.881 36.2084L122.256 16.5834L132.49 6.33913C133.411 5.41935 134.658 4.90265 135.959 4.90265C137.26 4.90265 138.508 5.41935 139.428 6.33913L152.115 19.0267V19.0365ZM134.944 43.136L115.319 23.511L48.466 90.3734C47.926 90.9133 47.5194 91.5719 47.2787 92.2966L39.3797 115.984C39.2364 116.416 39.2161 116.879 39.3209 117.322C39.4258 117.764 39.6517 118.169 39.9734 118.491C40.2951 118.813 40.7 119.039 41.1427 119.144C41.5854 119.248 42.0486 119.228 42.4804 119.085L66.1678 111.186C66.8916 110.948 67.5501 110.545 68.091 110.008L134.944 43.136Z" fill="white"/>
<path fill-rule="evenodd" clip-rule="evenodd" d="M9.8125 132.469C9.8125 136.372 11.3632 140.116 14.1235 142.876C16.8838 145.637 20.6276 147.187 24.5312 147.188H132.469C136.372 147.187 140.116 145.637 142.876 142.876C145.637 140.116 147.187 136.372 147.188 132.469V73.5938C147.188 72.2925 146.671 71.0446 145.75 70.1245C144.83 69.2044 143.582 68.6875 142.281 68.6875C140.98 68.6875 139.732 69.2044 138.812 70.1245C137.892 71.0446 137.375 72.2925 137.375 73.5938V132.469C137.375 133.77 136.858 135.018 135.938 135.938C135.018 136.858 133.77 137.375 132.469 137.375H24.5312C23.23 137.375 21.9821 136.858 21.062 135.938C20.1419 135.018 19.625 133.77 19.625 132.469V24.5312C19.625 23.23 20.1419 21.9821 21.062 21.062C21.9821 20.1419 23.23 19.625 24.5312 19.625H88.3125C89.6137 19.625 90.8616 19.1081 91.7817 18.188C92.7018 17.2679 93.2188 16.02 93.2188 14.7188C93.2188 13.4175 92.7018 12.1696 91.7817 11.2495C90.8616 10.3294 89.6137 9.8125 88.3125 9.8125H24.5312C20.6276 9.8125 16.8838 11.3632 14.1235 14.1235C11.3632 16.8838 9.8125 20.6276 9.8125 24.5312V132.469Z" fill="white"/>
</svg>
