<?xml version="1.0" encoding="UTF-8"?>
<!DOCTYPE svg PUBLIC "-//W3C//DTD SVG 1.1//EN" "http://www.w3.org/Graphics/SVG/1.1/DTD/svg11.dtd">
<!-- Creator: CorelDRAW 2017 -->
<svg xmlns="http://www.w3.org/2000/svg" xml:space="preserve" width="3310px" height="1596px" version="1.1" style="shape-rendering:geometricPrecision; text-rendering:geometricPrecision; image-rendering:optimizeQuality; fill-rule:evenodd; clip-rule:evenodd"
viewBox="0 0 3384.49 1632.26"
 xmlns:xlink="http://www.w3.org/1999/xlink">
 <defs>
  <style type="text/css">
   <![CDATA[
    .str0 {stroke:#FEFEFE;stroke-width:24.15;stroke-miterlimit:22.9256}
    .str1 {stroke:#FEFEFE;stroke-width:0.92;stroke-miterlimit:22.9256}
    .fil1 {fill:#FEFEFE}
    .fil0 {fill:#006CB4}
   ]]>
  </style>
 </defs>
 <g id="Camada_x0020_1">
  <metadata id="CorelCorpID_0Corel-Layer"/>
  <g id="_2380389863984">
   <path class="fil0 str0" d="M115.52 12.08l3156.98 6.95c55.06,0.12 100.03,41.61 99.92,92.2l-3.13 1417.19c-0.11,50.59 -45.25,91.88 -100.32,91.76l-3156.98 -6.95c-55.06,-0.13 -100.03,-41.62 -99.91,-92.2l3.12 -1417.2c0.11,-50.59 45.25,-91.87 100.32,-91.75z"/>
   <path class="fil1 str1" d="M206.22 1417.06l0 -287.74 130.63 0c26.6,0 47.91,2.94 63.97,8.73 16.11,5.82 28.7,14.78 37.78,26.92 9.06,12.05 13.69,24.73 13.69,37.99 0,12.26 -4.07,23.84 -12.14,34.7 -8.05,10.84 -20.31,19.62 -36.57,26.33 21.04,5.08 37.19,13.8 48.56,26.06 11.34,12.32 17.01,26.87 17.01,43.61 0,13.47 -3.51,26 -10.36,37.57 -6.92,11.61 -15.41,20.51 -25.56,26.81 -10.12,6.29 -22.86,10.98 -38.08,14.18 -15.23,3.24 -33.99,4.84 -56.16,4.84l-132.77 0zm46.1 -166.81l75.3 0c20.33,0 35.03,-1.13 43.93,-3.35 11.67,-2.88 20.51,-7.63 26.42,-14.34 5.93,-6.68 8.9,-15.08 8.9,-25.11 0,-9.53 -2.76,-17.96 -8.25,-25.2 -5.61,-7.3 -13.54,-12.26 -23.75,-14.93 -10.3,-2.67 -27.96,-4.04 -52.98,-4.04l-69.57 0 0 86.97zm0 132.86l86.67 0c14.9,0 25.35,-0.48 31.34,-1.34 10.63,-1.63 19.47,-4.24 26.6,-7.92 7.12,-3.63 12.97,-8.97 17.57,-15.94 4.57,-7.04 6.89,-15.08 6.89,-24.25 0,-10.72 -3.3,-20.04 -9.95,-27.99 -6.68,-7.93 -15.91,-13.48 -27.72,-16.69 -11.78,-3.14 -28.79,-4.77 -50.91,-4.77l-80.49 0 0 98.9zm280.94 33.95l0 -287.74 154.35 0c31.01,0 54.61,2.62 70.73,7.78 16.12,5.16 29,14.28 38.73,27.34 9.62,13.12 14.46,27.6 14.46,43.39 0,20.45 -7.98,37.61 -24.01,51.59 -15.97,14.01 -40.7,22.92 -74.06,26.74 12.2,4.81 21.46,9.59 27.78,14.34 13.42,10.18 26.18,22.98 38.23,38.26l60.55 78.3 -57.94 0 -46.03 -59.9c-13.45,-17.21 -24.58,-30.48 -33.31,-39.59 -8.69,-9.17 -16.44,-15.61 -23.33,-19.21 -6.91,-3.71 -13.86,-6.23 -21.01,-7.71 -5.29,-0.86 -13.8,-1.34 -25.68,-1.34l-53.42 0 0 127.75 -46.04 0zm46.04 -160.73l99.02 0c21.01,0 37.54,-1.78 49.39,-5.4 11.93,-3.62 20.89,-9.38 27.07,-17.3 6.14,-7.9 9.23,-16.48 9.23,-25.8 0,-13.59 -5.94,-24.78 -17.93,-33.54 -11.9,-8.78 -30.75,-13.15 -56.63,-13.15l-110.15 0 0 95.19zm290.32 20.57c0,-47.75 15.49,-85.12 46.51,-112.14 31.02,-26.98 71.06,-40.51 120.18,-40.51 32.12,0 61.12,6.35 86.91,19.02 25.74,12.71 45.45,30.4 59.01,53.11 13.54,22.64 20.24,48.44 20.24,77.2 0,29.21 -7.03,55.33 -21.34,78.3 -14.25,23.03 -34.43,40.46 -60.55,52.33 -26.15,11.84 -54.29,17.75 -84.5,17.75 -32.83,0 -62.07,-6.5 -87.86,-19.65 -25.86,-13.06 -45.39,-30.93 -58.66,-53.57 -13.29,-22.59 -19.94,-46.58 -19.94,-71.84zm47.46 0.63c0,34.7 11.28,61.94 33.81,81.92 22.62,19.98 50.9,29.95 84.95,29.95 34.7,0 63.22,-10.06 85.57,-30.22 22.38,-20.15 33.66,-48.76 33.66,-85.81 0,-23.39 -4.9,-43.81 -14.42,-61.29 -9.56,-17.48 -23.6,-31.02 -42,-40.67 -18.5,-9.58 -39.13,-14.42 -62.07,-14.42 -32.68,0 -60.73,9.26 -84.21,27.81 -23.54,18.49 -35.29,49.45 -35.29,92.73zm306.65 139.53l133.72 -287.74 49.59 0 142.51 287.74 -52.54 0 -40.57 -87.14 -145.6 0 -38.17 87.14 -48.94 0zm100.41 -118.16l118.11 0 -36.42 -79.67c-11.01,-24.19 -19.3,-44.08 -24.64,-59.69 -4.45,18.49 -10.68,36.78 -18.82,55l-38.23 84.36zm262.21 118.16l0 -287.74 119.86 0c27.07,0 47.73,1.43 62.04,4.16 19.91,3.77 36.92,10.66 51.05,20.57 18.31,12.85 32.06,29.21 41.14,49.18 9.17,19.95 13.74,42.75 13.74,68.39 0,21.85 -3.11,41.2 -9.35,58.09 -6.14,16.89 -14.01,30.87 -23.74,41.94 -9.65,11.04 -20.19,19.77 -31.7,26.06 -11.43,6.35 -25.29,11.19 -41.47,14.46 -16.32,3.29 -34.94,4.89 -55.95,4.89l-125.62 0zm46.04 -33.95l74.33 0c22.91,0 41.02,-1.75 54.05,-5.32 13.03,-3.53 23.42,-8.49 31.19,-14.93 10.96,-8.96 19.47,-21.16 25.53,-36.36 6.09,-15.28 9.17,-33.72 9.17,-55.47 0,-30.1 -5.99,-53.19 -17.93,-69.34 -11.99,-16.21 -26.5,-27.01 -43.6,-32.5 -12.29,-3.95 -32.23,-5.91 -59.57,-5.91l-73.17 0 0 219.83zm553.37 -66.94l46.15 9.65c-9.67,31.23 -27.1,55.06 -52.15,71.53 -25.11,16.42 -55.74,24.61 -92.07,24.61 -37.52,0 -67.97,-6.29 -91.51,-18.91 -23.48,-12.64 -41.38,-30.93 -53.64,-54.85 -12.26,-23.98 -18.37,-49.72 -18.37,-77.17 0,-29.95 6.88,-56.07 20.75,-78.39 13.86,-22.33 33.54,-39.27 59.12,-50.85 25.56,-11.58 53.67,-17.36 84.39,-17.36 34.85,0 64.11,7.3 87.86,21.99 23.77,14.66 40.28,35.23 49.63,61.83l-45.33 8.84c-8.13,-20.98 -19.79,-36.18 -35.2,-45.77 -15.29,-9.55 -34.58,-14.33 -57.91,-14.33 -26.77,0 -49.07,5.31 -67.05,15.88 -17.99,10.65 -30.64,24.87 -37.85,42.74 -7.3,17.84 -10.95,36.24 -10.95,55.21 0,24.52 4.3,45.83 12.88,64.11 8.7,18.23 22.06,31.88 40.31,40.93 18.23,9.06 37.9,13.54 59.16,13.54 25.76,0 47.58,-6.18 65.48,-18.43 17.92,-12.32 29.98,-30.61 36.3,-54.8zm64.53 100.89l133.72 -287.74 49.59 0 142.51 287.74 -52.54 0 -40.57 -87.14 -145.6 0 -38.17 87.14 -48.94 0zm100.41 -118.16l118.11 0 -36.42 -79.67c-11.02,-24.19 -19.3,-44.08 -24.64,-59.69 -4.45,18.49 -10.68,36.78 -18.82,55l-38.23 84.36zm246.54 25.7l43.46 -3.14c2.05,14.42 6.82,26.21 14.36,35.44 7.54,9.26 19.21,16.68 35.03,22.38 15.79,5.7 33.6,8.52 53.4,8.52 17.6,0 33.06,-2.17 46.54,-6.44 13.42,-4.37 23.48,-10.24 30.04,-17.75 6.59,-7.57 9.88,-15.74 9.88,-24.67 0,-9.02 -3.15,-16.86 -9.56,-23.63 -6.32,-6.77 -16.77,-12.4 -31.28,-16.95 -9.41,-3.02 -29.98,-7.71 -62.01,-14.07 -31.91,-6.38 -54.38,-12.34 -67.17,-17.95 -16.65,-7.19 -29.03,-16.15 -37.22,-26.81 -8.1,-10.65 -12.14,-22.58 -12.14,-35.85 0,-14.46 4.93,-28.05 14.9,-40.67 9.94,-12.64 24.58,-22.23 43.66,-28.79 19.24,-6.5 40.49,-9.79 63.91,-9.79 25.85,0 48.53,3.44 68.33,10.33 19.68,6.82 34.81,16.94 45.47,30.27 10.51,13.33 16.27,28.47 17.07,45.36l-44.17 2.76c-2.43,-18.17 -10.45,-31.97 -24.16,-41.2 -13.68,-9.32 -33.87,-13.95 -60.61,-13.95 -27.87,0 -48.15,4.21 -60.94,12.67 -12.76,8.43 -19.14,18.61 -19.14,30.48 0,10.39 4.57,18.88 13.53,25.53 8.9,6.68 32.03,13.54 69.46,20.48 37.46,7.04 63.13,13.15 77.08,18.38 20.27,7.74 35.23,17.54 44.91,29.32 9.65,11.87 14.43,25.53 14.43,40.93 0,15.35 -5.29,29.75 -15.91,43.28 -10.6,13.54 -25.86,24.07 -45.71,31.64 -19.83,7.48 -42.18,11.25 -67,11.25 -31.55,0 -57.97,-3.77 -79.19,-11.4 -21.34,-7.57 -38.02,-18.96 -50.16,-34.22 -12.11,-15.23 -18.49,-32.5 -19.09,-51.74zm428.64 92.46l0 -253.78 -114.69 0 0 -33.96 275.9 0 0 33.96 -115.17 0 0 253.78 -46.04 0z"/>
   <path class="fil1 str1" d="M494.81 210.32l237.92 644.1 250.57 -644.1 296.67 0 0 825.56 -193.96 0 0 -619.94 -249.62 619.94 -209.25 0 -235.76 -619.94 0 619.94 -193.96 0 0 -825.56 297.39 0zm1330.98 335.06l469.61 0 0 490.5 -426.85 0c-74.29,0 -133.05,-4.75 -176.05,-14.25 -43.24,-9.49 -82.65,-26 -118,-49.95 -100.33,-66.89 -150.49,-181.88 -150.49,-345.17 0,-107.35 23.89,-196.33 71.42,-266.72 35.36,-52.03 83.61,-90.01 144.52,-113.75 60.91,-23.74 140.21,-35.72 238.39,-35.72l417.06 0 0 146.99 -394.13 0c-84.8,0 -146.66,16.1 -185.36,48.31 -45.15,37.98 -67.84,105.9 -67.84,203.96 0,50.37 5.97,95.79 17.92,136.25 11.7,40.46 27.94,70.6 48.49,90.42 18.63,18.17 43.95,31.38 75.72,39.85 31.53,8.46 70.94,12.79 118.24,12.79l183.93 0 0 -196.53 -266.58 0 0 -146.98zm1357.49 -335.06l0 146.99 -265.15 0c-69.51,0 -120.15,4.13 -151.68,12.39 -31.29,8.25 -57.57,24.36 -78.59,48.1 -14.09,16.1 -23.65,32.41 -28.66,48.92 -5.26,16.52 -9.56,44.8 -13.38,84.65l537.46 0 0 146.98 -537.46 0c6.93,71.43 31.06,120.97 72.14,148.84 41.09,27.87 110.84,41.7 209.25,41.7l256.07 0 0 146.99 -265.15 0c-71.9,0 -135.19,-3.92 -189.66,-11.56 -85.99,-11.97 -154.31,-44.39 -205.18,-97.23 -72.38,-75.98 -108.45,-178.78 -108.45,-308.43 0,-144.09 51.12,-255.98 153.35,-335.67 34.88,-27.05 72.14,-46.03 111.79,-56.56 39.89,-10.74 92.92,-16.11 159.8,-16.11l343.5 0z"/>
  </g>
 </g>
</svg>
