<?xml version="1.0" encoding="UTF-8" standalone="no"?>
<!-- Creator: CorelDRAW 2017 -->

<svg
   xml:space="preserve"
   width="440.61896"
   height="483.16382"
   version="1.1"
   style="clip-rule:evenodd;fill-rule:evenodd;image-rendering:optimizeQuality;shape-rendering:geometricPrecision;text-rendering:geometricPrecision"
   viewBox="0 0 440.61896 483.24175"
   id="svg6"
   sodipodi:docname="logo-linha-s.svg"
   xmlns:inkscape="http://www.inkscape.org/namespaces/inkscape"
   xmlns:sodipodi="http://sodipodi.sourceforge.net/DTD/sodipodi-0.dtd"
   xmlns="http://www.w3.org/2000/svg"
   xmlns:svg="http://www.w3.org/2000/svg"><sodipodi:namedview
   id="namedview6"
   pagecolor="#505050"
   bordercolor="#eeeeee"
   borderopacity="1"
   inkscape:showpageshadow="0"
   inkscape:pageopacity="0"
   inkscape:pagecheckerboard="0"
   inkscape:deskcolor="#505050"><inkscape:page
     x="0"
     y="0"
     width="440.61896"
     height="483.24176"
     id="page2"
     margin="0"
     bleed="0" /></sodipodi:namedview>
 <defs
   id="defs1"><style
     type="text/css"
     id="style1">
   <![CDATA[
    .fil0 {fill:#59B952}
    .fil1 {fill:#59B952;fill-rule:nonzero}
   ]]>
  </style></defs>
 <g
   id="Camada_x0020_1"
   inkscape:label="Camada 1"
   inkscape:groupmode="layer"
   transform="translate(-231.8729,-209.82828)">
  <metadata
   id="CorelCorpID_0Corel-Layer" />
  <g
   id="_2380080612992">
   <path
   class="fil0"
   d="m 327.33,589.42 c -28.24,-28.94 -49.85,-43.94 -67.02,-92 -47.12,-131.89 49.94,-272.09 191.45,-271.9 143.52,0.2 237.53,141.47 192.26,270.42 -9.68,27.55 -27.6,54.9 -46.91,74.84 -7.3,7.54 -12.92,10.32 -20.57,18.25 24.39,3.88 30.88,-0.92 52.92,-31 11.8,-16.12 22.57,-35.22 30.54,-57.43 17.76,-49.43 15.38,-100.14 -1.73,-148.55 -66.26,-187.54 -343.34,-191.72 -412.88,0.04 -17.08,47.11 -18.83,97.78 -2.18,146.62 7.57,22.23 17.6,40.53 30,57.9 22.98,32.19 28.33,35.02 54.12,32.81 z"
   id="path1" />
   <path
   class="fil0"
   d="m 496.62,426.51 c 7.18,-27.87 40.26,-66.47 74.18,-66.38 -4.53,31.64 -38.03,61.46 -74.18,66.38 z M 335.05,360.45 c 33.2,-2.15 69.11,40.99 74.91,66 -14.85,-0.15 -39,-14.93 -47.95,-21.76 -10.89,-8.31 -22.9,-25.23 -26.96,-44.24 z m 96.42,71.19 c -4.58,-3.06 -13.29,-39.67 -39.57,-63.63 -15.29,-13.94 -43.87,-30.22 -74.79,-25.38 -0.98,56.04 47.86,97.13 100.68,103.1 3.6,22.67 9.39,41.14 12.12,67.22 2.66,25.46 0.86,50.71 2.45,76.63 l 16.17,-0.45 c 1.27,-55.97 -2.21,-88.04 -12.35,-139.48 l 33.86,-0.09 c -9.73,49.26 -14.29,85.5 -12.28,140.52 l 16.38,-0.32 c 2.48,-98.52 -1.43,-52 14.26,-143.43 30.45,-7.5 52.73,-15.82 70.44,-33.31 16.14,-15.95 31.26,-37.48 30.03,-70.8 -60.42,-5.72 -98.54,43.43 -112.89,89.31 -14.49,2.24 -30.94,3.23 -44.51,0.11 z"
   id="path2" />
   <path
   class="fil0"
   d="m 516.94,532.02 c 9.41,-34.87 49.7,-68.41 93.66,-70.63 -4.34,36.58 -52.86,65.46 -93.66,70.63 z m -7.2,19.46 c 54.23,-13.21 123.88,-36.68 118.14,-107.85 -84.29,-3.99 -139.71,64.56 -139.7,146.26 l 15.5,-0.27 z"
   id="path3" />
   <path
   class="fil0"
   d="m 294.61,462.35 c 40.89,-5.76 87.5,39.94 94.31,69.57 -20.48,-2.31 -44.1,-12.8 -59.17,-22.9 -20.45,-13.69 -24.03,-20.78 -35.14,-46.67 z m 34.21,65.71 c 71.22,37.89 68.53,-0.5 73.18,61.8 l 16.31,0.13 c -2.1,-45.27 -16.68,-80.78 -38.74,-105.89 -18.67,-21.26 -59.18,-44.34 -101.35,-40.14 -2.14,43.89 22.48,69.13 50.6,84.1 z"
   id="path4" />
   <path
   class="fil0"
   d="m 451.76,361.24 c -16.74,-19.51 -18.27,-62.56 0,-81.88 16.83,15.76 18.45,67.35 0,81.88 z m 0,-109.02 c -38.27,34.96 -39.81,101.19 0,135.61 16.78,-8.6 30.47,-44.34 30.08,-68.41 -0.48,-28.72 -14.9,-55.2 -30.08,-67.2 z"
   id="path5" />
  </g>
  <path
   class="fil1"
   d="m 239.55,630.8 c 0,-2.92 0.5,-5.56 1.52,-7.91 1,-2.36 2.46,-4.38 4.36,-6.04 1.9,-1.68 4.22,-2.97 6.97,-3.88 2.74,-0.89 5.82,-1.35 9.21,-1.35 3.56,0 6.85,0.35 9.91,1.05 3.05,0.71 5.67,1.54 7.83,2.5 l -1.38,6.81 c -2.26,-1.07 -4.81,-1.95 -7.64,-2.64 -2.84,-0.69 -5.65,-1.03 -8.44,-1.03 -2.21,0 -4.21,0.26 -5.99,0.8 -1.81,0.53 -3.33,1.28 -4.6,2.25 -1.27,0.96 -2.25,2.12 -2.92,3.49 -0.68,1.36 -1.02,2.89 -1.02,4.56 0,1.51 0.3,2.78 0.89,3.82 0.6,1.05 1.42,1.93 2.45,2.65 1.02,0.72 2.2,1.33 3.53,1.83 1.34,0.51 2.75,0.98 4.21,1.42 2.21,0.64 4.31,1.33 6.31,2.08 1.99,0.76 3.75,1.73 5.28,2.92 1.52,1.19 2.73,2.72 3.63,4.55 0.89,1.84 1.33,4.07 1.33,6.67 0,3.12 -0.63,5.93 -1.87,8.43 -1.24,2.48 -2.98,4.58 -5.21,6.32 -2.24,1.73 -4.94,3.04 -8.09,3.97 -3.16,0.93 -6.61,1.38 -10.34,1.38 -1.96,0 -3.92,-0.12 -5.89,-0.39 -1.96,-0.25 -3.71,-0.58 -5.25,-0.99 -1.56,-0.39 -2.9,-0.83 -4.05,-1.32 -1.15,-0.5 -2.06,-0.97 -2.7,-1.43 l 1.43,-6.6 c 0.99,0.58 2.09,1.11 3.34,1.61 1.24,0.51 2.56,0.93 3.95,1.31 1.39,0.36 2.83,0.64 4.32,0.83 1.49,0.2 2.98,0.3 4.49,0.3 2.93,0 5.54,-0.32 7.78,-0.93 2.26,-0.61 4.14,-1.47 5.65,-2.59 1.52,-1.11 2.67,-2.48 3.43,-4.08 0.77,-1.61 1.15,-3.4 1.15,-5.35 0,-1.72 -0.39,-3.2 -1.18,-4.42 -0.78,-1.23 -1.8,-2.23 -3.09,-2.98 -1.3,-0.77 -2.76,-1.42 -4.39,-1.92 -1.65,-0.5 -3.33,-1.02 -5.04,-1.54 -1.9,-0.55 -3.69,-1.2 -5.35,-1.96 -1.68,-0.75 -3.15,-1.66 -4.42,-2.76 -1.27,-1.08 -2.28,-2.38 -3,-3.92 -0.74,-1.54 -1.11,-3.38 -1.11,-5.52 z m 58.71,44.46 c -2.19,0 -4.1,-0.27 -5.71,-0.82 -1.61,-0.55 -2.93,-1.31 -3.96,-2.28 -1.04,-0.96 -1.81,-2.11 -2.3,-3.45 -0.5,-1.32 -0.75,-2.77 -0.75,-4.33 0,-0.56 0.04,-1.13 0.1,-1.74 0.07,-0.6 0.17,-1.26 0.32,-2.01 l 4.72,-22.71 h 5.93 l -4.62,22.36 c -0.13,0.63 -0.24,1.24 -0.32,1.82 -0.08,0.57 -0.12,1.12 -0.12,1.66 0,0.98 0.14,1.87 0.4,2.66 0.25,0.81 0.65,1.49 1.2,2.06 0.55,0.56 1.27,0.99 2.14,1.3 0.88,0.3 1.95,0.46 3.21,0.46 1.58,0 2.95,-0.22 4.1,-0.67 1.17,-0.45 2.16,-1.09 2.97,-1.96 0.83,-0.85 1.49,-1.87 2,-3.04 0.51,-1.18 0.92,-2.5 1.23,-3.95 l 4.71,-22.7 h 5.94 l -4.95,23.67 c -0.3,1.49 -0.72,2.91 -1.24,4.28 -0.52,1.39 -1.19,2.65 -2.01,3.8 -1.23,1.68 -2.91,3.04 -5.02,4.06 -2.12,1.02 -4.78,1.53 -7.97,1.53 z m 33.67,-27.56 c 0,0.78 0.16,1.48 0.47,2.04 0.33,0.57 0.76,1.07 1.3,1.5 0.53,0.42 1.15,0.79 1.87,1.09 0.72,0.31 1.46,0.6 2.26,0.89 1.1,0.38 2.21,0.78 3.33,1.24 1.13,0.44 2.15,1.02 3.06,1.71 0.93,0.71 1.68,1.6 2.27,2.67 0.58,1.07 0.88,2.45 0.88,4.13 0,2.02 -0.37,3.79 -1.13,5.32 -0.76,1.53 -1.81,2.82 -3.14,3.85 -1.35,1.03 -2.94,1.82 -4.79,2.34 -1.85,0.52 -3.88,0.78 -6.08,0.78 -1.96,0 -3.95,-0.21 -5.95,-0.63 -2.01,-0.41 -3.58,-0.96 -4.73,-1.64 l 1.11,-4.95 c 1.35,0.58 2.83,1.1 4.42,1.53 1.6,0.45 3.32,0.67 5.15,0.67 2,0 3.6,-0.23 4.81,-0.7 1.22,-0.49 2.16,-1.06 2.84,-1.74 0.68,-0.68 1.13,-1.39 1.34,-2.14 0.22,-0.74 0.32,-1.38 0.32,-1.92 0,-0.99 -0.22,-1.83 -0.69,-2.49 -0.46,-0.66 -1.06,-1.22 -1.79,-1.68 -0.75,-0.47 -1.58,-0.86 -2.54,-1.21 -0.94,-0.34 -1.91,-0.7 -2.9,-1.05 -0.96,-0.37 -1.88,-0.76 -2.8,-1.2 -0.91,-0.46 -1.72,-1.01 -2.43,-1.65 -0.71,-0.65 -1.27,-1.47 -1.71,-2.42 -0.44,-0.95 -0.65,-2.12 -0.65,-3.5 0,-1.96 0.36,-3.66 1.08,-5.12 0.7,-1.43 1.67,-2.64 2.89,-3.59 1.21,-0.96 2.61,-1.68 4.19,-2.15 1.59,-0.47 3.26,-0.7 5.03,-0.7 1.04,0 2.07,0.06 3.09,0.21 1.02,0.13 2,0.31 2.95,0.55 0.95,0.22 1.84,0.48 2.66,0.77 0.83,0.28 1.57,0.6 2.2,0.93 l -1.03,4.83 c -1.53,-0.64 -3.1,-1.19 -4.72,-1.62 -1.62,-0.43 -3.25,-0.65 -4.85,-0.65 -1.23,0 -2.32,0.14 -3.26,0.44 -0.94,0.29 -1.74,0.7 -2.38,1.19 -0.64,0.5 -1.12,1.1 -1.45,1.79 -0.33,0.7 -0.5,1.46 -0.5,2.28 z m 41.27,26.83 c -0.62,0.18 -1.51,0.35 -2.66,0.5 -1.15,0.15 -2.28,0.23 -3.43,0.23 -3.22,0 -5.57,-0.64 -7.05,-1.93 -1.49,-1.28 -2.23,-3.06 -2.23,-5.31 0,-0.84 0.12,-1.9 0.38,-3.18 l 4.53,-21.82 h -7.05 l 1.07,-5.1 h 7.05 l 2.07,-9.96 h 5.97 l -2.06,9.96 h 9.61 l -1.04,5.1 h -9.65 l -4.25,20.37 c -0.13,0.65 -0.23,1.23 -0.31,1.71 -0.08,0.49 -0.12,0.97 -0.12,1.43 0,1.32 0.36,2.25 1.06,2.77 0.71,0.52 1.9,0.78 3.58,0.78 0.76,0 1.68,-0.06 2.74,-0.2 1.06,-0.15 2,-0.32 2.82,-0.53 z m 34.43,-28.44 c -0.33,-0.47 -0.72,-0.94 -1.17,-1.42 -0.44,-0.5 -0.96,-0.95 -1.55,-1.34 -0.58,-0.4 -1.25,-0.72 -1.96,-0.97 -0.74,-0.24 -1.56,-0.36 -2.48,-0.36 -1.51,0 -2.87,0.33 -4.1,0.99 -1.23,0.67 -2.32,1.55 -3.26,2.63 -0.94,1.1 -1.76,2.34 -2.44,3.74 -0.69,1.41 -1.27,2.86 -1.72,4.37 -0.44,1.49 -0.77,2.97 -0.99,4.43 -0.22,1.45 -0.33,2.78 -0.33,3.99 0,1.61 0.15,2.94 0.45,3.99 0.29,1.04 0.69,1.87 1.2,2.47 0.51,0.6 1.1,1.03 1.77,1.27 0.66,0.24 1.34,0.36 2.06,0.36 1.26,0 2.53,-0.33 3.82,-0.98 1.28,-0.65 2.48,-1.59 3.61,-2.84 1.12,-1.24 2.14,-2.75 3.03,-4.56 0.89,-1.79 1.59,-3.84 2.07,-6.15 z m -4.29,22.24 c -0.86,1.28 -1.79,2.36 -2.8,3.23 -0.99,0.89 -2,1.6 -3.02,2.15 -1.02,0.55 -2.04,0.95 -3.05,1.19 -1,0.24 -1.97,0.36 -2.89,0.36 -1.58,0 -2.99,-0.29 -4.21,-0.86 -1.23,-0.58 -2.26,-1.4 -3.11,-2.47 -0.84,-1.07 -1.48,-2.36 -1.91,-3.86 -0.43,-1.52 -0.65,-3.18 -0.65,-5.02 0,-2.07 0.18,-4.14 0.53,-6.22 0.36,-2.08 0.89,-4.1 1.6,-6.03 0.69,-1.94 1.57,-3.74 2.61,-5.42 1.05,-1.67 2.25,-3.13 3.61,-4.39 1.35,-1.24 2.85,-2.22 4.51,-2.94 1.66,-0.72 3.48,-1.07 5.44,-1.07 1.95,0 3.66,0.4 5.14,1.2 1.48,0.81 2.62,1.94 3.41,3.39 h 0.16 l 1.75,-3.65 h 4.83 l -5.86,27.98 c -0.18,0.98 -0.26,1.7 -0.26,2.18 0,0.62 0.17,1.06 0.51,1.35 0.35,0.28 0.95,0.42 1.82,0.42 0.72,0 1.55,-0.08 2.53,-0.24 l -1.03,4.92 c -1.07,0.22 -2.26,0.34 -3.57,0.34 -2.12,0 -3.65,-0.5 -4.59,-1.49 -0.95,-0.99 -1.4,-2.68 -1.35,-5.05 z m 16.93,5.99 7.55,-36.4 h 5.93 l -7.54,36.4 z m 9.15,-44.87 1.35,-6.59 h 6.24 l -1.34,6.59 z m 13.52,44.87 h -5.93 l 7.58,-36.4 h 4.87 v 4.95 h 0.15 c 1.56,-1.84 3.39,-3.28 5.49,-4.32 2.12,-1.05 4.49,-1.57 7.12,-1.57 1.45,0 2.78,0.19 4,0.59 1.21,0.4 2.25,0.96 3.1,1.71 0.86,0.73 1.53,1.66 2.01,2.76 0.48,1.1 0.73,2.34 0.73,3.75 0,0.99 -0.09,2.05 -0.25,3.18 -0.17,1.12 -0.37,2.27 -0.64,3.44 l -4.55,21.91 h -5.93 l 4.66,-22.62 c 0.41,-1.87 0.62,-3.4 0.62,-4.6 0,-0.92 -0.13,-1.7 -0.41,-2.36 -0.26,-0.65 -0.64,-1.17 -1.12,-1.58 -0.48,-0.39 -1.07,-0.68 -1.74,-0.87 -0.68,-0.2 -1.41,-0.29 -2.21,-0.29 -1.71,0 -3.31,0.31 -4.78,0.94 -1.48,0.63 -2.8,1.49 -3.95,2.59 -1.15,1.1 -2.12,2.39 -2.92,3.88 -0.78,1.49 -1.36,3.1 -1.71,4.84 z m 61.75,-28.23 c -0.33,-0.47 -0.72,-0.94 -1.17,-1.42 -0.44,-0.5 -0.97,-0.95 -1.55,-1.34 -0.58,-0.4 -1.24,-0.72 -1.96,-0.97 -0.74,-0.24 -1.56,-0.36 -2.48,-0.36 -1.51,0 -2.87,0.33 -4.1,0.99 -1.23,0.67 -2.32,1.55 -3.26,2.63 -0.94,1.1 -1.76,2.34 -2.44,3.74 -0.7,1.41 -1.27,2.86 -1.71,4.37 -0.45,1.49 -0.78,2.97 -1,4.43 -0.22,1.45 -0.33,2.78 -0.33,3.99 0,1.61 0.15,2.94 0.45,3.99 0.29,1.04 0.69,1.87 1.2,2.47 0.51,0.6 1.1,1.03 1.77,1.27 0.66,0.24 1.34,0.36 2.06,0.36 1.26,0 2.53,-0.33 3.82,-0.98 1.28,-0.65 2.49,-1.59 3.61,-2.84 1.12,-1.24 2.14,-2.75 3.03,-4.56 0.89,-1.79 1.59,-3.84 2.07,-6.15 z m -4.29,22.24 c -0.87,1.28 -1.79,2.36 -2.8,3.23 -0.99,0.89 -2,1.6 -3.02,2.15 -1.02,0.55 -2.04,0.95 -3.05,1.19 -1,0.24 -1.97,0.36 -2.89,0.36 -1.58,0 -2.99,-0.29 -4.21,-0.86 -1.23,-0.58 -2.26,-1.4 -3.11,-2.47 -0.84,-1.07 -1.48,-2.36 -1.91,-3.86 -0.43,-1.52 -0.65,-3.18 -0.65,-5.02 0,-2.07 0.18,-4.14 0.53,-6.22 0.36,-2.08 0.89,-4.1 1.6,-6.03 0.69,-1.94 1.57,-3.74 2.61,-5.42 1.05,-1.67 2.25,-3.13 3.61,-4.39 1.35,-1.24 2.85,-2.22 4.51,-2.94 1.67,-0.72 3.48,-1.07 5.44,-1.07 1.95,0 3.67,0.4 5.14,1.2 1.48,0.81 2.62,1.94 3.42,3.39 h 0.15 l 1.75,-3.65 h 4.83 l -5.86,27.98 c -0.18,0.98 -0.26,1.7 -0.26,2.18 0,0.62 0.17,1.06 0.51,1.35 0.35,0.28 0.95,0.42 1.82,0.42 0.72,0 1.55,-0.08 2.53,-0.24 l -1.03,4.92 c -1.07,0.22 -2.26,0.34 -3.57,0.34 -2.12,0 -3.65,-0.5 -4.59,-1.49 -0.95,-0.99 -1.4,-2.68 -1.35,-5.05 z m 28.92,-25.69 c 0.56,-0.79 1.19,-1.53 1.88,-2.22 0.68,-0.68 1.45,-1.28 2.29,-1.8 0.85,-0.51 1.78,-0.91 2.79,-1.2 1,-0.3 2.1,-0.44 3.27,-0.44 1.36,0 2.69,0.23 4.02,0.69 1.34,0.46 2.51,1.19 3.56,2.22 1.06,1.02 1.9,2.33 2.54,3.94 0.64,1.61 0.95,3.56 0.95,5.86 0,1.89 -0.17,3.83 -0.52,5.84 -0.34,2 -0.88,3.95 -1.61,5.83 -0.72,1.9 -1.64,3.68 -2.73,5.36 -1.1,1.69 -2.41,3.17 -3.93,4.42 -1.53,1.27 -3.24,2.28 -5.17,3.01 -1.93,0.75 -4.08,1.11 -6.45,1.11 -1.77,0 -3.33,-0.27 -4.72,-0.82 -1.37,-0.55 -2.55,-1.31 -3.5,-2.26 -0.96,-0.96 -1.69,-2.1 -2.19,-3.43 -0.5,-1.32 -0.74,-2.77 -0.74,-4.33 0,-0.66 0.04,-1.3 0.11,-1.95 0.08,-0.64 0.19,-1.33 0.34,-2.06 l 8.7,-41.56 h 5.94 l -4.99,23.79 z m -3.79,17.66 c -0.13,0.62 -0.24,1.23 -0.34,1.83 -0.11,0.59 -0.16,1.23 -0.16,1.9 0,1.91 0.51,3.43 1.53,4.54 1.02,1.11 2.49,1.67 4.37,1.67 1.53,0 2.94,-0.3 4.24,-0.91 1.29,-0.62 2.43,-1.44 3.45,-2.46 1,-1.02 1.89,-2.21 2.65,-3.56 0.77,-1.36 1.4,-2.78 1.9,-4.3 0.49,-1.5 0.87,-3 1.14,-4.46 0.24,-1.46 0.37,-2.86 0.37,-4.2 0,-1.04 -0.11,-2.06 -0.36,-3.04 -0.24,-0.98 -0.63,-1.87 -1.17,-2.64 -0.53,-0.79 -1.22,-1.42 -2.09,-1.89 -0.85,-0.47 -1.89,-0.7 -3.12,-0.7 -1.05,0 -2.12,0.22 -3.23,0.65 -1.11,0.43 -2.17,1.11 -3.18,2.03 -1.02,0.91 -1.92,2.08 -2.72,3.48 -0.81,1.39 -1.41,3.07 -1.83,5 z m 30.07,14.02 7.55,-36.4 h 5.93 l -7.54,36.4 z m 9.16,-44.87 1.34,-6.59 h 6.24 l -1.33,6.59 z m 18.99,45.08 c -0.4,0.09 -0.94,0.18 -1.58,0.25 -0.65,0.06 -1.32,0.09 -2.01,0.09 -2.15,0 -3.77,-0.42 -4.85,-1.27 -1.09,-0.84 -1.62,-2.17 -1.62,-3.97 0,-0.77 0.1,-1.66 0.3,-2.68 l 10.08,-48.1 H 590 l -9.72,46.51 c -0.24,1.16 -0.36,1.98 -0.36,2.49 0,0.64 0.19,1.11 0.54,1.4 0.37,0.3 0.95,0.44 1.8,0.44 0.84,0 1.69,-0.08 2.53,-0.23 z m 7.39,-0.21 7.55,-36.4 h 5.93 l -7.54,36.4 z m 9.15,-44.87 1.35,-6.59 h 6.24 l -1.33,6.59 z m 27.02,45.08 c -0.62,0.18 -1.51,0.35 -2.66,0.5 -1.15,0.15 -2.28,0.23 -3.43,0.23 -3.22,0 -5.57,-0.64 -7.05,-1.93 -1.49,-1.28 -2.22,-3.06 -2.22,-5.31 0,-0.84 0.11,-1.9 0.37,-3.18 l 4.53,-21.82 h -7.05 l 1.07,-5.1 h 7.05 l 2.07,-9.96 h 5.97 l -2.06,9.96 h 9.61 l -1.04,5.1 h -9.65 l -4.25,20.37 c -0.13,0.65 -0.23,1.23 -0.31,1.71 -0.08,0.49 -0.12,0.97 -0.12,1.43 0,1.32 0.36,2.25 1.06,2.77 0.71,0.52 1.9,0.78 3.58,0.78 0.76,0 1.68,-0.06 2.74,-0.2 1.06,-0.15 2,-0.32 2.82,-0.53 z m 9.99,-36.61 h 6.13 l 6.32,28.77 h 0.15 l 15.52,-28.77 h 6.86 l -20.81,37.42 c -1.27,2.3 -2.49,4.41 -3.67,6.34 -1.18,1.93 -2.42,3.62 -3.71,5.12 -1.77,2.04 -3.72,3.59 -5.85,4.66 -2.13,1.08 -4.64,1.61 -7.53,1.61 -0.54,0 -1.07,-0.01 -1.62,-0.05 -0.55,-0.04 -1.13,-0.12 -1.72,-0.21 l 1.08,-5.11 c 0.39,0.05 0.77,0.1 1.13,0.14 0.37,0.04 0.74,0.05 1.09,0.05 1.54,0 2.95,-0.27 4.26,-0.82 1.3,-0.55 2.54,-1.4 3.73,-2.54 1.19,-1.13 2.35,-2.59 3.46,-4.38 1.13,-1.78 2.28,-3.89 3.45,-6.34 z"
   id="path6" />
 </g>
</svg>
