<svg width="21" height="38" viewBox="0 0 21 38" fill="none" xmlns="http://www.w3.org/2000/svg">
<path fill-rule="evenodd" clip-rule="evenodd" d="M10.4995 2.43727C13.0764 2.43727 15.1666 4.61881 15.1666 7.30987V14.4019H5.83301V7.30987C5.83301 4.61881 7.92321 2.43727 10.4995 2.43727ZM17.4999 7.30987V21.4944C17.4999 25.5313 14.3659 28.8041 10.4995 28.8041C6.63357 28.8041 3.49961 25.5313 3.49961 21.4944V7.30987C3.49961 3.27275 6.63357 0 10.4995 0C14.3659 0 17.4999 3.27275 17.4999 7.30987ZM21 21.4944C21 27.096 16.9772 31.7165 11.7824 32.377V35.3194H17.4999V38H3.49961V35.3194H9.21605V32.377C4.02291 31.7158 0 27.096 0 21.4944H2.33324C2.33324 26.2041 5.99 30.0221 10.4995 30.0221C15.0101 30.0221 18.6662 26.2041 18.6662 21.4944H21Z" fill="#59B952"/>
</svg>
