<svg width="41" height="38" viewBox="0 0 41 38" fill="none" xmlns="http://www.w3.org/2000/svg">
<path fill-rule="evenodd" clip-rule="evenodd" d="M27.0256 16.5386V5.68604H30.195V14.0158H35.4257V16.5386H27.0256ZM17.1796 16.5386V5.68604H20.3492V14.0158H25.5793V16.5386H17.1796ZM8.71159 11.2236H10.8975C11.4118 11.2236 11.7535 11.1392 11.9193 10.9679C12.0878 10.7985 12.1717 10.4551 12.1717 9.93975V9.31329C12.1717 8.88296 12.0637 8.57434 11.8521 8.39244C11.6407 8.21112 11.281 8.11863 10.7716 8.11863H8.71159V11.2236ZM5.57355 16.5386V5.68604H11.064C12.6064 5.68604 13.7117 5.96677 14.3753 6.52728C15.0413 7.08856 15.3744 8.01249 15.3744 9.30156V10.0149C15.3744 11.3057 15.0413 12.2339 14.3734 12.7963C13.7054 13.3615 12.6008 13.642 11.064 13.642H8.71159V16.5386H5.57355ZM32.9032 22.2252H6.88481L9.42767 24.7845L9.30504 24.9068H7.67232V35.6243C7.67232 36.0577 8.02396 36.4123 8.45506 36.4123H32.1199C32.5516 36.4123 32.9032 36.0577 32.9032 35.6243V22.2252ZM2.52261 0H38.4762C39.8644 0 41 1.14313 41 2.54008V19.6851C41 21.082 39.8644 22.2252 38.4762 22.2252H34.4802V35.5293C34.4802 36.8886 33.3769 38 32.0267 38H8.54942C7.19939 38 6.09595 36.8886 6.09595 35.5293V24.9068H4.464L4.34252 24.7845L6.88481 22.2252H2.52261C1.13553 22.2252 0 21.082 0 19.6851V2.54008C0 1.14313 1.13553 0 2.52261 0Z" fill="#DF3E3E"/>
</svg>
