<svg width="31" height="36" viewBox="0 0 31 36" fill="none" xmlns="http://www.w3.org/2000/svg">
<path fill-rule="evenodd" clip-rule="evenodd" d="M17.9306 0.679576V19.9913C17.1754 20.4298 16.3563 20.6711 15.4998 20.6711C14.6432 20.6711 13.8241 20.4298 13.0688 19.9913V0.679576C13.8241 0.241035 14.6432 0 15.4998 0C16.3563 0 17.1754 0.241035 17.9306 0.679576Z" fill="#FFBB00"/>
<path fill-rule="evenodd" clip-rule="evenodd" d="M20.384 5.34155C26.5511 7.41808 31 13.3164 31 20.2714C31 28.958 24.0603 35.9999 15.5001 35.9999C6.93965 35.9999 0 28.958 0 20.2714C0 13.3164 4.44891 7.41808 10.6162 5.34155C10.9372 5.89609 11.1212 6.5424 11.1212 7.23204C11.1212 8.1864 10.7685 9.05674 10.1887 9.71738C6.40953 11.6795 3.82314 15.6679 3.82314 20.2714C3.82314 26.8157 9.05083 32.1205 15.5001 32.1205C21.9492 32.1205 27.177 26.8157 27.177 20.2714C27.177 15.6679 24.5906 11.6795 20.8112 9.71738C20.2315 9.05674 19.8789 8.1864 19.8789 7.23204C19.8789 6.5424 20.0628 5.89609 20.384 5.34155Z" fill="#FFBB00"/>
</svg>
