<?xml version="1.0" encoding="UTF-8" standalone="no"?>
<svg
   width="16"
   height="16"
   fill="currentColor"
   class="bi bi-exclamation-triangle"
   viewBox="0 0 16 16"
   version="1.1"
   id="svg2"
   xmlns="http://www.w3.org/2000/svg"
   xmlns:svg="http://www.w3.org/2000/svg">
  <defs
     id="defs2" />
  <path
     d="M 7.938,2.016 A 0.13,0.13 0 0 1 8.002,2 0.13,0.13 0 0 1 8.065,2.016 0.15,0.15 0 0 1 8.119,2.073 l 6.857,11.667 c 0.036,0.06 0.035,0.124 0.002,0.183 A 0.2,0.2 0 0 1 14.924,13.983 0.1,0.1 0 0 1 14.858,14 H 1.146 A 0.1,0.1 0 0 1 1.08,13.983 0.2,0.2 0 0 1 1.026,13.923 0.18,0.18 0 0 1 1.028,13.74 L 7.884,2.073 A 0.15,0.15 0 0 1 7.938,2.016 m 1.044,-0.45 a 1.13,1.13 0 0 0 -1.96,0 L 0.165,13.233 C -0.292,14.011 0.256,15 1.145,15 h 13.713 c 0.889,0 1.438,-0.99 0.98,-1.767 z"
     id="path1"
     style="fill:#ffffff" />
  <path
     d="m 7.002,12 a 1,1 0 1 1 2,0 1,1 0 0 1 -2,0 M 7.1,5.995 a 0.905,0.905 0 1 1 1.8,0 L 8.55,9.502 a 0.552,0.552 0 0 1 -1.1,0 z"
     id="path2"
     style="fill:#ffffff" />
</svg>
